<svg xmlns="http://www.w3.org/2000/svg" viewBox="0 0 64 64" x="0px" y="0px">
  <title>handshake-connection-human-robot-future-cooperative-hand</title>
  <g data-name="26-robot and human handshake">
    <path
      d="M33,23H29V22a1,1,0,0,0-1-1H24V20a1,1,0,0,0-1-1H18a1,1,0,0,0-1,1V39H16.9L16,30.947V23a1,1,0,0,0-1-1H10a1,1,0,0,0-1,1v8h.017a1.024,1.024,0,0,0-.011.11l1,9c0,.011.008.019.009.029s0,.017,0,.025L10.986,46H8.161l-2.845-.948a.968.968,0,0,0-.291-.047C5.016,45.005,5.009,45,5,45H1a1,1,0,0,0-1,1v5a1,1,0,0,0,1,1H4.839l2.845.948A.983.983,0,0,0,8,53h6v3H13a1,1,0,0,0-1,1v6a1,1,0,0,0,1,1H31a1,1,0,0,0,1-1V57a1,1,0,0,0-1-1H30V53h1a1,1,0,0,0,.986-.836l2-12a.662.662,0,0,0,0-.077A.838.838,0,0,0,34,40V34a.948.948,0,0,0-.039-.192A.972.972,0,0,0,34,33.615V24A1,1,0,0,0,33,23ZM24,39V32h3v7ZM19,29h3v1H19Zm13,3.615H29v-1.23h3ZM27,30H24V29h3Zm2,5h3v4H29Zm3-10v4.385H29V25Zm-5-2v4H24V23Zm-8-2h3v6H19Zm0,11h3v7H19Zm-7.883,0h2.988l.778,7H11.9ZM11,29h3v1H11Zm0-5h3v3H11ZM2,47H4v3H2Zm4,.388,1,.333v2.891l-1-.333ZM9,48h2.32l.5,3H9ZM30,62H14V58H30Zm-2-6H16V53H28Zm2.153-5H13.847L12.181,41H31.819Z">
    </path>
    <path
      d="M63,0H40a1,1,0,0,0-1,1V7a1,1,0,0,0,1,1h1.04L37.855,20.739a3.189,3.189,0,0,0,6.105,1.822l.04-.105v9.16a3,3,0,0,0,4,2.829v.624a3,3,0,0,0,6,.02,3,3,0,0,0,4-2.829V30.23A3,3,0,0,0,62,27.4V8h1a1,1,0,0,0,1-1V1A1,1,0,0,0,63,0ZM60,27.4a1,1,0,0,1-2,0V21a1,1,0,0,0-2,0V32.26a1,1,0,0,1-2,0V21a1,1,0,0,0-2,0V35.069a1,1,0,0,1-2,0V21a1,1,0,0,0-2,0V31.616a1,1,0,0,1-2,0V18H58V16H49.568A6.271,6.271,0,0,0,52,11H50c0,4.063-4.908,4.969-5.158,5.012a1,1,0,0,0-.351.129c-.024.014-.041.037-.064.053a.973.973,0,0,0-.2.176.994.994,0,0,0-.078.13,1.056,1.056,0,0,0-.086.146L42.077,21.89a1.189,1.189,0,0,1-2.282-.665L43.1,8H60ZM62,6H41V2H62Z">
    </path>
  </g>
</svg>