<svg xmlns="http://www.w3.org/2000/svg" viewBox="0 0 64 64" x="0px" y="0px">
  <title>dashboard-screen-technology-digital-computer-future-VR</title>
  <g data-name="19-VR program">
    <path
      d="M20.483,31.1a13.17,13.17,0,0,0,1.641-.1A1,1,0,0,0,23,30V25a1,1,0,0,0-1-1,12.034,12.034,0,0,1-9.146-4.206L10.759,17.35A1,1,0,0,0,9,18v6a.993.993,0,0,0,.132.5A13.054,13.054,0,0,0,20.483,31.1ZM11,20.7l.336.392A14.032,14.032,0,0,0,21,25.965v3.118a11.054,11.054,0,0,1-10-5.354Z">
    </path>
    <path
      d="M41,35a1,1,0,0,0,.2-.02l3.721-.744a18.608,18.608,0,0,0,10.864-6.611A1,1,0,0,0,56,27V17a1,1,0,0,0-1.707-.707A23.238,23.238,0,0,1,42.88,22.558l-2.1.465A1,1,0,0,0,40,24V34a1,1,0,0,0,1,1Zm1-10.2,1.314-.292A25.25,25.25,0,0,0,54,19.266v7.378a16.606,16.606,0,0,1-9.475,5.631L42,32.78Z">
    </path>
    <path
      d="M10.618,10.924A.979.979,0,0,0,11,11a1,1,0,0,0,.708-.293l.463-.465A11,11,0,0,1,20,7a1,1,0,0,0,1-1V1a1,1,0,0,0-1-1,16.106,16.106,0,0,0-9.6,3.2A1,1,0,0,0,10,4v6A1,1,0,0,0,10.618,10.924ZM12,4.511a14.124,14.124,0,0,1,7-2.475v3a12.952,12.952,0,0,0-7,2.694Z">
    </path>
    <path
      d="M49,8a7.518,7.518,0,0,1,5.792,2.714l2.44,2.927A1,1,0,0,0,59,13V6a1,1,0,0,0-.219-.624l-.815-1.02A9.338,9.338,0,0,0,48.8,1.02,1,1,0,0,0,48,2V7A1,1,0,0,0,49,8Zm1-5.136a7.377,7.377,0,0,1,6.4,2.742l.6.745v3.887l-.671-.8A9.517,9.517,0,0,0,50,6.052Z">
    </path>
    <path
      d="M64,47H49.288c-1.89-2.63-5.256-4.777-9.6-5.981l-1.7-10.183-.01,0a.7.7,0,0,0-.006-.08l-.924-3.7,2.891-7.708a1,1,0,0,0-.23-1.059L37,15.586V12.351a4.369,4.369,0,0,0,1-2.765V8.073a4.873,4.873,0,0,0-5.676-4.807l-4.489.748c-.02,0-.037.015-.057.019a1.016,1.016,0,0,0-.2.068.886.886,0,0,0-.087.044c-.017.01-.036.016-.053.027a1.03,1.03,0,0,0-.127.111.587.587,0,0,0-.046.041.986.986,0,0,0-.16.235c-.011.022-.017.046-.026.069a.931.931,0,0,0-.061.217c0,.016-.011.031-.013.048s0,.027,0,.041S27,4.977,27,5V8a1,1,0,0,0,.628.929l1.507.6L30.523,13H29a1,1,0,0,0-.447.105L22.884,15.94l-3.266-.816-1.786-2.679a1,1,0,0,0-1.075-.415l-4,1A1,1,0,0,0,12,14v2a1,1,0,0,0,1,1h1a1,1,0,0,0,.445.832l3,2a1,1,0,0,0,.124.058c.022.011.037.03.059.039l5,2a1.007,1.007,0,0,0,.744,0l1.933-.774,1.285.429-.485.969a1,1,0,0,0,.579,1.395l.316.106V31a1,1,0,0,0,.629.929l.371.148V37a.977.977,0,0,0,.016.179l.55,3.024c-6.235.71-11.314,3.308-13.836,6.8H0v2H13.612A7.962,7.962,0,0,0,13,52a7.736,7.736,0,0,0,.286,2H0v2H14.108c2.617,4.653,9.638,8,17.892,8s15.275-3.347,17.892-8H64V54H50.714A7.736,7.736,0,0,0,51,52a7.989,7.989,0,0,0-.6-3H64ZM30,32.739a10.954,10.954,0,0,0,2,.286l0,4.052.842,10.951-.937-.625L30,36.91Zm1.232,16.618,1.037.691-2.259,1.7a.228.228,0,0,1-.243.023.23.23,0,0,1-.081-.346Zm-1.294-1.608L28.085,50.22a2.231,2.231,0,0,0,3.124,3.124L34.6,50.8a.942.942,0,0,0,.072-.069.969.969,0,0,0,.073-.07,1.024,1.024,0,0,0,.106-.148c.012-.021.028-.04.04-.062a1.015,1.015,0,0,0,.087-.244c0-.01,0-.021,0-.031a1.05,1.05,0,0,0,.019-.2.251.251,0,0,1,0-.027c0-.008,0-.015,0-.023l-.481-6.23,2.412,9.162-1.122,1.931a2.2,2.2,0,0,0,1,3.549A19.053,19.053,0,0,1,32,58.944c-6.5,0-12-3.179-12-6.944,0-3.243,4.035-6.091,9.478-6.78Zm7.645,8.661a.208.208,0,0,1-.168.028.207.207,0,0,1-.093-.346,1.006,1.006,0,0,0,.157-.2L38.576,54h1.015A5.559,5.559,0,0,1,37.583,56.41Zm4.074-2.218.292-.876c.005-.017.006-.035.011-.052s.007-.037.011-.057a.976.976,0,0,0,.009-.388c0-.005,0-.01,0-.015L40.9,47.39c1.981,1.275,3.1,2.9,3.1,4.61,0,2.091-1.7,4-4.32,5.284A7.566,7.566,0,0,0,41.657,54.192ZM39.78,52H38.771L34,33.869v-.925a10.974,10.974,0,0,0,2.222-.53L38.02,43.2ZM35.454,25.608l-4.231-2.115.433-1.3,3.1.776a1,1,0,0,0,1.229-.806l.681-4.083,1.17,1.171Zm-6.087-2.873-.957-.319.485-.969a1,1,0,0,0-.579-1.395l-1.3-.435,2.317-.464L29.946,21Zm3.158-10.116-.8-1.988.955.317a.981.981,0,0,0,.288.047c.009,0,.019.005.028.005s.036-.007.055-.008a1.126,1.126,0,0,0,.182-.027.884.884,0,0,0,.088-.025.942.942,0,0,0,.19-.09c.014-.009.031-.012.046-.022l.01-.009.013-.007c.035-.026.063-.058.094-.086s.051-.043.073-.068a.964.964,0,0,0,.083-.118c.017-.027.037-.05.052-.078a1.1,1.1,0,0,0,.057-.148c.008-.025.021-.048.027-.074A.962.962,0,0,0,34,10h1.965a2.4,2.4,0,0,1-.57,1.184L33.96,11.9Zm.475,2,2-1v1.661l-1.73.576L33,15.586Zm-.347-9.38A2.875,2.875,0,0,1,36,8H34V7a1,1,0,0,0-.628-.929L31.69,5.4ZM29,6.477l3,1.2v.846l-3-1.2ZM15,15H14v-.219l2.559-.64L17.9,16.147l-.431,1.294L16,16.465V16A1,1,0,0,0,15,15Zm9.8,3.02A1,1,0,0,0,24,19v.523l-1,.4-3.753-1.5.136-.409.273-.819,3.1.776a1,1,0,0,0,.69-.075L29.236,15H31v1a1,1,0,0,0,.293.707l1,1a.969.969,0,0,0,.293.2.878.878,0,0,0,.085.033.98.98,0,0,0,.279.055c.017,0,.033.01.05.01s.013,0,.02,0a.976.976,0,0,0,.3-.049l1.425-.474-.549,3.294-2.417-.605-.826-2.479A1,1,0,0,0,29.8,17.02Zm4.809,6.905,5.528,2.764.686,2.741a8.969,8.969,0,0,1-6.608-.02L29,30.323v-5.6ZM32,62c-9.374,0-17-4.486-17-10,0-4.772,6.031-8.955,13.925-9.824l.2,1.076C22.633,44.1,18,47.7,18,52c0,5.016,6.149,8.944,14,8.944S46,57.016,46,52c0-2.862-2.03-5.474-5.569-7.165L40.4,44.9l-.337-1.688C45.534,44.965,49,48.325,49,52,49,57.514,41.374,62,32,62Z">
    </path>
  </g>
</svg>