<svg xmlns="http://www.w3.org/2000/svg" viewBox="0 0 64 64" x="0px" y="0px">
  <title>developer-scientist-people-man-person-VR-expert</title>
  <g data-name="27-scientist">
    <path
      d="M63.217,56.023c-6.35-1.41-11.48-3.05-15.881-6.472l-1.32-1.028A10.926,10.926,0,0,0,47,44a1,1,0,0,0-1-1H43.635l2.133-8H49a1,1,0,0,0,.781-.375l4-5A1,1,0,0,0,54,29V16a1,1,0,0,0-1-1H52V11a3.006,3.006,0,0,0-2-2.829V7a3.006,3.006,0,0,0-2.073-2.854A5.008,5.008,0,0,0,43,0H21a5.008,5.008,0,0,0-4.927,4.146A3.006,3.006,0,0,0,14,7V8.171A3.006,3.006,0,0,0,12,11v4H11a1,1,0,0,0-1,1V29a1,1,0,0,0,.219.625l4,5A1,1,0,0,0,15,35h3.232l2.133,8H18a1,1,0,0,0-1,1,10.926,10.926,0,0,0,.984,4.523l-1.32,1.028c-4.4,3.422-9.531,5.062-15.881,6.472A1,1,0,0,0,0,57v6a1,1,0,0,0,1,1H63a1,1,0,0,0,1-1V57A1,1,0,0,0,63.217,56.023ZM27.387,17h9.226l-1.334,4H28.721ZM45,15H19V10.871a98.064,98.064,0,0,1,26,0Zm-6.279,2H52v8H47.48l-3.7-4.625A1,1,0,0,0,43,20H37.721ZM14,11a1,1,0,0,1,1-1,1,1,0,0,0,1-1V7a1,1,0,0,1,1-1,1,1,0,0,0,1-1,3,3,0,0,1,3-3H43a3,3,0,0,1,3,3,1,1,0,0,0,1,1,1,1,0,0,1,1,1V9a1,1,0,0,0,1,1,1,1,0,0,1,1,1v4H47V10a1,1,0,0,0-.858-.99,100,100,0,0,0-28.284,0A1,1,0,0,0,17,10v5H14Zm4,6h7.279l1,3H21a1,1,0,0,0-.781.375L16.52,25H12V17ZM12,28.649V27h5a1,1,0,0,0,.781-.375L21.48,22h5.466l.1.316A1,1,0,0,0,28,23h8a1,1,0,0,0,.949-.684L37.054,22H42.52l3.7,4.625A1,1,0,0,0,47,27h5v1.649L48.52,33H36.333L32.6,30.2a1,1,0,0,0-1.2,0L27.667,33H15.48ZM28,35a1,1,0,0,0,.6-.2L32,32.25l3.4,2.55a1,1,0,0,0,.6.2h7.7l-2.167,8.128A6.571,6.571,0,0,1,35.189,48H28.811a6.571,6.571,0,0,1-6.342-4.872L20.3,35ZM21.024,45a8.579,8.579,0,0,0,7.787,5h6.378a8.579,8.579,0,0,0,7.787-5h1.969A9.013,9.013,0,0,1,36,53H28a9.013,9.013,0,0,1-8.945-8ZM62,62H2V57.8c6.256-1.433,11.383-3.165,15.891-6.671l1.091-.848A10.99,10.99,0,0,0,28,55h8a10.99,10.99,0,0,0,9.018-4.719l1.091.848C50.617,54.635,55.744,56.367,62,57.8Z">
    </path>
    <rect x="27" y="39" width="10" height="2"></rect>
    <rect x="30" y="43" width="4" height="2"></rect>
  </g>
</svg>