<svg xmlns="http://www.w3.org/2000/svg" viewBox="0 0 64 64" x="0px" y="0px">
  <title>astronaut-space-career-avatar-character-people-job</title>
  <g data-name="12-astronaut">
    <path
      d="M39.328,40.017l-2.386-1.591a3,3,0,0,0-1.165-1.83,18,18,0,1,0-23.554,0,3,3,0,0,0-1.165,1.83L8.672,40.017A9,9,0,0,0,0,49V63a1,1,0,0,0,1,1H47a1,1,0,0,0,1-1V49A9,9,0,0,0,39.328,40.017ZM14.366,38H34a1,1,0,0,1,0,2H14a1,1,0,0,1,0-2Zm23.48-7H18.979a4.967,4.967,0,0,1-4.921-4.408A32.373,32.373,0,0,0,27,29.287a32.393,32.393,0,0,0,12.55-2.526A15.978,15.978,0,0,1,37.846,31Zm2.086-6.607A30.444,30.444,0,0,1,14,24.362V18.978A4.984,4.984,0,0,1,18.979,14H37.218A15.9,15.9,0,0,1,40,23C40,23.468,39.972,23.932,39.932,24.393ZM8,23A15.979,15.979,0,0,1,35.589,12H18.979A6.986,6.986,0,0,0,12,18.978v7.044A6.986,6.986,0,0,0,18.979,33H36.473a16.035,16.035,0,0,1-3.156,3H14.683A16.008,16.008,0,0,1,8,23ZM2,49a7.011,7.011,0,0,1,6-6.929V62H2Zm8-7.465,1.453-.969A2.991,2.991,0,0,0,14,42H34a2.991,2.991,0,0,0,2.547-1.434L38,41.535V62H36V50.157A6.164,6.164,0,0,0,29.843,44H18.157A6.164,6.164,0,0,0,12,50.157V62H10ZM17,62V59H31v3Zm16,0V58a1,1,0,0,0-1-1H16a1,1,0,0,0-1,1v4H14V50.157A4.162,4.162,0,0,1,18.157,46H29.843A4.162,4.162,0,0,1,34,50.157V62Zm13,0H40V42.071A7.011,7.011,0,0,1,46,49Z">
    </path>
    <path
      d="M63,0H32a1,1,0,0,0-1,1V5h2V2H62V49H59a1,1,0,0,0-.819.427L53,56.828V50a1,1,0,0,0-1-1H50v2h1v9a1,1,0,0,0,1.819.573L59.521,51H63a1,1,0,0,0,1-1V1A1,1,0,0,0,63,0Z">
    </path>
    <rect x="37" y="6" width="5" height="2"></rect>
    <rect x="44" y="6" width="14" height="2"></rect>
    <rect x="42" y="12" width="10" height="2"></rect>
    <rect x="54" y="12" width="4" height="2"></rect>
    <rect x="44" y="18" width="14" height="2"></rect>
    <rect x="44" y="24" width="2" height="2"></rect>
    <rect x="48" y="24" width="10" height="2"></rect>
    <rect x="43" y="30" width="11" height="2"></rect>
    <rect x="56" y="30" width="2" height="2"></rect>
    <rect x="41" y="36" width="13" height="2"></rect>
    <path d="M20,48a4,4,0,1,0,4,4A4,4,0,0,0,20,48Zm0,6a2,2,0,1,1,2-2A2,2,0,0,1,20,54Z"></path>
    <rect x="25" y="49" width="6" height="2"></rect>
    <rect x="25" y="53" width="6" height="2"></rect>
  </g>
</svg>