<svg xmlns="http://www.w3.org/2000/svg" viewBox="0 0 64 64" x="0px" y="0px">
  <title>UFO-alien-galaxy-space-explore-future-connection</title>
  <g data-name="20-UFO">
    <path
      d="M64,32c0-4.134-6.062-7.711-16.234-9.624a15.98,15.98,0,0,0-31.532,0C6.062,24.289,0,27.866,0,32c0,1.95,1.506,3.943,4.424,5.689l.1.163.083-.051a31.658,31.658,0,0,0,7.84,3.046A17.944,17.944,0,0,0,25.071,46H38.929a17.944,17.944,0,0,0,12.624-5.153C59.718,38.712,64,35.293,64,32ZM33,33.161a37.717,37.717,0,0,0,13.005-2.685h0c.095-.038.181-.087.27-.133L56.86,36.857C51.815,39.143,43.377,40.885,33,40.992ZM18,25a14,14,0,0,1,28,0v2.528a1.168,1.168,0,0,1-.737,1.09,35.565,35.565,0,0,1-26.525,0A1.167,1.167,0,0,1,18,27.528ZM2,32c0-2.895,5.593-5.875,14.028-7.548-.007.183-.028.363-.028.548v2.528a3.175,3.175,0,0,0,.118.841l-11.532,7.1C2.913,34.344,2,33.154,2,32Zm15.229-1.967a3.206,3.206,0,0,0,.766.443A37.717,37.717,0,0,0,31,33.161v7.831c-10.777-.111-19.462-1.985-24.427-4.4ZM38.929,44H25.071a15.961,15.961,0,0,1-8.039-2.168A88.155,88.155,0,0,0,32,43a88.155,88.155,0,0,0,14.968-1.168A15.961,15.961,0,0,1,38.929,44Zm19.994-8.221L47.7,28.873a3.177,3.177,0,0,0,.3-1.345V25c0-.185-.021-.365-.028-.548C56.407,26.125,62,29.105,62,32,62,33.263,60.909,34.567,58.923,35.779Z">
    </path>
    <path
      d="M34.172,20.828a5.725,5.725,0,0,0,3.187,1.662,4.285,4.285,0,0,0,.624.045,3.562,3.562,0,0,0,2.553-1,3.686,3.686,0,0,0,.954-3.177,5.991,5.991,0,0,0-4.849-4.848,3.5,3.5,0,0,0-4.131,4.132A5.726,5.726,0,0,0,34.172,20.828Zm.706-4.949a1.566,1.566,0,0,1,1.131-.414,2.6,2.6,0,0,1,.349.025,4,4,0,0,1,3.152,3.152,1.517,1.517,0,0,1-1.868,1.868,4,4,0,0,1-3.152-3.152A1.745,1.745,0,0,1,34.878,15.879Z">
    </path>
    <path
      d="M39.242,24.885a3.933,3.933,0,0,0,3.2,3.2,3.094,3.094,0,0,0,.426.03,2.5,2.5,0,0,0,1.792-.708h0a2.574,2.574,0,0,0,.677-2.218,3.78,3.78,0,0,0-1.094-2.108c-1.329-1.33-3.23-1.512-4.326-.416A2.577,2.577,0,0,0,39.242,24.885Zm2.092-.805a.513.513,0,0,1,.37-.123,1.717,1.717,0,0,1,1.128.539,1.8,1.8,0,0,1,.528.977.645.645,0,0,1-.111.52h0a.627.627,0,0,1-.521.112,1.943,1.943,0,0,1-1.5-1.5A.638.638,0,0,1,41.334,24.08Z">
    </path>
    <path
      d="M1,19H4.586l3.707,3.707A1,1,0,0,0,9,23a.987.987,0,0,0,.383-.076A1,1,0,0,0,10,22V19h5V17H9a1,1,0,0,0-1,1v1.586L5.707,17.293A1,1,0,0,0,5,17H2V2H31V7h2V1a1,1,0,0,0-1-1H1A1,1,0,0,0,0,1V18A1,1,0,0,0,1,19Z">
    </path>
    <path
      d="M29,8V6H19.414L17.707,4.293a1,1,0,0,0-1.656.391L15.279,7H13.535l-1.7-2.555a1.039,1.039,0,0,0-1.664,0L9,6.2,7.832,4.445a1,1,0,0,0-.733-.44,1.011,1.011,0,0,0-.806.288l-3,3L4.707,8.707,6.845,6.569,8.168,8.555a1.039,1.039,0,0,0,1.664,0L11,6.8l1.168,1.752A1,1,0,0,0,13,9h3a1,1,0,0,0,.949-.684l.488-1.464.856.855A1,1,0,0,0,19,8Z">
    </path>
    <path
      d="M11.293,11.293l-1.138,1.138L8.832,10.445a1,1,0,0,0-1.727.108L6.382,12H4v2H7a1,1,0,0,0,.895-.553l.229-.459,1.044,1.567A1,1,0,0,0,9.9,15c.034,0,.066.005.1.005a1,1,0,0,0,.707-.293L12.414,13H19V11H12A1,1,0,0,0,11.293,11.293Z">
    </path>
    <path
      d="M20,52H44a1,1,0,0,0,.949-1.316l-1-3A1,1,0,0,0,43,47H21a1,1,0,0,0-.949.684l-1,3A1,1,0,0,0,20,52Zm1.721-3H42.279l.334,1H21.387Z">
    </path>
    <path
      d="M18.189,57.585A1,1,0,0,0,19,58H45a1,1,0,0,0,.949-1.316l-1-3A1,1,0,0,0,44,53H20a1,1,0,0,0-.949.684l-1,3A1,1,0,0,0,18.189,57.585ZM20.721,55H43.279l.334,1H20.387Z">
    </path>
    <path
      d="M45.949,59.684A1,1,0,0,0,45,59H19a1,1,0,0,0-.949.684l-1,3A1,1,0,0,0,18,64H46a1,1,0,0,0,.949-1.316ZM19.387,62l.334-1H44.279l.334,1Z">
    </path>
    <path
      d="M23.721,34.086a6.079,6.079,0,0,0-2.866-1.065c-2.547-.3-4.621.749-4.823,2.445a2.7,2.7,0,0,0,1.247,2.448,6.079,6.079,0,0,0,2.866,1.065,7.085,7.085,0,0,0,.861.052c2.14,0,3.783-1,3.962-2.5A2.7,2.7,0,0,0,23.721,34.086ZM22.982,36.3c-.034.287-.982.888-2.6.7a4.13,4.13,0,0,1-1.911-.685c-.332-.246-.468-.486-.453-.6.03-.249.75-.733,1.99-.733a5.081,5.081,0,0,1,.61.037,4.13,4.13,0,0,1,1.911.685c.332.246.468.486.453.6Z">
    </path>
    <path
      d="M43.145,33.021a6.079,6.079,0,0,0-2.866,1.065,2.7,2.7,0,0,0-1.247,2.448c.179,1.5,1.822,2.5,3.962,2.5a7.073,7.073,0,0,0,.861-.052,6.079,6.079,0,0,0,2.866-1.065,2.7,2.7,0,0,0,1.247-2.447C47.766,33.769,45.691,32.715,43.145,33.021Zm2.384,3.287a4.13,4.13,0,0,1-1.91.685c-1.612.189-2.566-.409-2.6-.7h0c-.015-.118.121-.358.453-.6a4.13,4.13,0,0,1,1.91-.685,5.1,5.1,0,0,1,.611-.037c1.24,0,1.96.484,1.99.734C46,35.822,45.861,36.062,45.529,36.308Z">
    </path>
  </g>
</svg>