<svg xmlns="http://www.w3.org/2000/svg" viewBox="0 0 64 64" x="0px" y="0px">
  <title>smart-hand-phone-social-connection-communication-technology</title>
  <g data-name="18-futuristic phone">
    <path
      d="M62.208,42.347a4.434,4.434,0,0,0-.76-7.126l-4.043-2.332a3.956,3.956,0,0,0-2.5-.889H40a1.006,1.006,0,0,0-.555.168L27.7,40H17v2H28a1.006,1.006,0,0,0,.555-.168L40.3,34h14.6a1.952,1.952,0,0,1,1.273.471.965.965,0,0,0,.152.107l4.118,2.375a2.415,2.415,0,0,1,.438,3.872l-5.44-2.72A1,1,0,0,0,55,38H43a1,1,0,0,0-1,1,11.882,11.882,0,0,1-6.6,10.684l-2.844,1.421a1,1,0,0,0,.894,1.79l2.845-1.422A13.924,13.924,0,0,0,42,46.213V47a1,1,0,0,0,1,1v3a1,1,0,0,0,1,1h1v3a1,1,0,0,0,1,1h4.52l2.748,3.436-9.3,2.536L30.21,59.022A1.062,1.062,0,0,0,30,59H2V42H9V40H1a1,1,0,0,0-1,1V60a1,1,0,0,0,1,1H29.9l13.9,2.978A1.062,1.062,0,0,0,44,64a1.016,1.016,0,0,0,.263-.035l11.053-3.017h0l.015-.006a7.363,7.363,0,0,0,4.477-4.25A4.587,4.587,0,0,0,62,52.764v-.6l.241-.724a9.353,9.353,0,0,0-.18-5.479A6.291,6.291,0,0,0,62.208,42.347Zm-6.567,3.884A1.006,1.006,0,0,0,55,46H44V44H54.764l5.453,2.726a7.8,7.8,0,0,1,.258,3.534Zm4.56-3.512a3.43,3.43,0,0,1,.133,1.83l-4.887-2.444A1,1,0,0,0,55,42H44V40H54.764ZM55.319,58.8l-3.538-4.422A1,1,0,0,0,51,54H47V52h6.586l4.242,4.242A5.362,5.362,0,0,1,55.319,58.8Zm3.807-4.085-4.419-4.419A1,1,0,0,0,54,50H45V48h9.638L60,52.469v.3A2.6,2.6,0,0,1,59.126,54.712Z">
    </path>
    <path
      d="M1,30H7.279l5.773,17.316A1,1,0,0,0,14,48a1.017,1.017,0,0,0,.134-.009A1,1,0,0,0,15,47.056L15.946,30H45a1,1,0,0,0,1-1V1a1,1,0,0,0-1-1H1A1,1,0,0,0,0,1V29A1,1,0,0,0,1,30ZM13.292,41.714,9,28.839v-2.19A3.467,3.467,0,0,0,10.462,27l1.706,2.559A1,1,0,0,0,13,30h.943ZM10,24.908a1.491,1.491,0,0,1,0-2.816ZM16,28V27h8v1Zm10,0V26a1,1,0,0,0-1-1H15a1,1,0,0,0-1,1v2h-.465L12,25.7V22h5.184a2.982,2.982,0,0,0,5.632,0H28v3.7L26.465,28Zm-7-7.1a4.906,4.906,0,0,0,2,0V21a1,1,0,0,1-2,0Zm-.994-2.672L18.618,17h2.764l.612,1.225a2.953,2.953,0,0,1-3.988,0ZM24.775,12h-9.55a.22.22,0,0,1-.136-.057L15,11.764v-.539A.228.228,0,0,1,15.225,11h9.55a.228.228,0,0,1,.225.225v.539l-.089.179A.22.22,0,0,1,24.775,12ZM15.022,8h9.956c.009.1.022.2.022.3v.72A2.091,2.091,0,0,0,24.775,9h-9.55A2.091,2.091,0,0,0,15,9.023V8.3C15,8.2,15.013,8.1,15.022,8Zm.938-2A3.282,3.282,0,0,1,18.3,5H21.7a3.278,3.278,0,0,1,2.342,1Zm7.922,8-.777,1.553a.994.994,0,0,0-.067.286l-.143-.286A1,1,0,0,0,22,15H18a1,1,0,0,0-.895.553l-.143.286a.994.994,0,0,0-.067-.286L16.118,14ZM31,23.5a1.5,1.5,0,0,1-1,1.408V22.092A1.5,1.5,0,0,1,31,23.5ZM29.538,27A3.467,3.467,0,0,0,31,26.649V28H28.868ZM2,2H44V28H33V23h-.051A3.494,3.494,0,0,0,29.5,20H22.965a4.981,4.981,0,0,0,2.029-3.752l1.6-3.2a2.218,2.218,0,0,0,.276-.553l.026-.051a1.022,1.022,0,0,0,.029-.127c.013-.05.027-.1.036-.151A1.011,1.011,0,0,0,27,12V8.3A5.3,5.3,0,0,0,21.7,3H18.3A5.3,5.3,0,0,0,13,8.3V12a1.011,1.011,0,0,0,.04.169c.009.051.023.1.036.151a1.022,1.022,0,0,0,.029.127l.026.051a2.218,2.218,0,0,0,.276.553l1.6,3.2A4.981,4.981,0,0,0,17.035,20H10.5A3.5,3.5,0,0,0,7,23.5a3.443,3.443,0,0,0,.051.5H7v4H2Z">
    </path>
    <path
      d="M11,46V44H4a1,1,0,0,0-1,1V56a1,1,0,0,0,1,1H23a1,1,0,0,0,1-1V45a1,1,0,0,0-1-1H17v2h1v3H9V46ZM8,51H19a1,1,0,0,0,1-1V46h2v9H5V46H7v4A1,1,0,0,0,8,51Z">
    </path>
    <path d="M31,19H42a1,1,0,0,0,1-1V4a1,1,0,0,0-1-1H31a1,1,0,0,0-1,1V18A1,1,0,0,0,31,19ZM32,5h9V17H32Z"></path>
    <path d="M42,20H35a1,1,0,0,0-1,1v5a1,1,0,0,0,1,1h7a1,1,0,0,0,1-1V21A1,1,0,0,0,42,20Zm-1,5H36V22h5Z"></path>
    <rect x="4" y="4" width="7" height="2"></rect>
    <rect x="4" y="8" width="7" height="2"></rect>
    <rect x="4" y="12" width="7" height="2"></rect>
    <rect x="4" y="16" width="4" height="2"></rect>
  </g>
</svg>