<svg xmlns="http://www.w3.org/2000/svg" viewBox="0 0 64 64" x="0px" y="0px">
  <title>time-machine-travel-science</title>
  <g data-name="17-time machine">
    <path
      d="M25.309,49.88l.939-1.766A13.733,13.733,0,0,1,19.147,37H23V35H19.129C19.491,28.121,24.591,22.582,31,22.054V26h2V22.054c6.409.528,11.509,6.067,11.871,12.946H41v2h3.852a13.73,13.73,0,0,1-7.1,11.114l.939,1.766a15.828,15.828,0,0,0,8.216-14.1C46.908,27.078,40.221,20,32,20S17.092,27.078,17.092,35.777A15.826,15.826,0,0,0,25.309,49.88Z">
    </path>
    <path
      d="M63,38a1,1,0,0,0,1-1V32A32,32,0,0,0,0,32v5a1,1,0,0,0,1,1H3.217a31.133,31.133,0,0,0,7.875,19.587L.606,62.081A1,1,0,0,0,1,64H63a1,1,0,0,0,.394-1.919L52.908,57.587A31.133,31.133,0,0,0,60.783,38ZM2,32a30,30,0,0,1,60,0v4H60.8C60.522,19.408,47.714,6,32,6S3.478,19.408,3.2,36H2ZM5.872,62,28,52.516V60a1,1,0,0,0,1,1h6a1,1,0,0,0,1-1V52.516L58.128,62Zm7.293-27H10.021C10.509,23.127,19.649,13.558,31,13.023v3.031C21.369,16.592,13.645,24.791,13.165,35ZM33,13.023c11.351.535,20.491,10.1,20.979,21.977H50.835c-.48-10.209-8.2-18.408-17.835-18.946ZM32,18c9.31,0,16.883,8.075,16.883,18a18.088,18.088,0,0,1-9.094,15.965L36,50.341V48a1,1,0,0,0,1-.917l.79-9.475a4.716,4.716,0,0,0-2.605-4.635l-.783-.392A3.856,3.856,0,0,0,35,30.5,3.283,3.283,0,0,0,32,27a3.283,3.283,0,0,0-3,3.5,3.856,3.856,0,0,0,.6,2.081l-.782.392a4.715,4.715,0,0,0-2.606,4.635L27,47.083A1,1,0,0,0,28,48v2.341l-3.789,1.624A18.088,18.088,0,0,1,15.117,36C15.117,26.075,22.69,18,32,18ZM31,59H30V48h1Zm1-27c-.532,0-1-.7-1-1.5s.468-1.5,1-1.5,1,.7,1,1.5S32.532,32,32,32Zm-.614,1.925a2.551,2.551,0,0,0,1.228,0l1.673.837a2.728,2.728,0,0,1,1.507,2.68L35.08,46H28.92l-.714-8.558a2.728,2.728,0,0,1,1.508-2.68ZM33,48h1V59H33Zm17.951,8.749L42.042,52.93A20.107,20.107,0,0,0,50.85,37H55a1,1,0,0,0,1-1c0-13.785-10.767-25-24-25S8,22.215,8,36a1,1,0,0,0,1,1h4.15a20.107,20.107,0,0,0,8.808,15.93l-8.909,3.819A29.229,29.229,0,0,1,5.183,36.557C5.183,20.811,17.213,8,32,8S58.817,20.811,58.817,36.557A29.229,29.229,0,0,1,50.951,56.749Z">
    </path>
  </g>
</svg>