<svg xmlns="http://www.w3.org/2000/svg" viewBox="0 0 91.9 100.5"><defs><style>.cls-1{stroke:#000;stroke-miterlimit:10;stroke-width:0.5px;}</style></defs><g id="Layer_2" data-name="Layer 2"><g id="Layer_1-2" data-name="Layer 1"><path class="cls-1" d="M87.25,87.35H43.35a.86.86,0,0,1-.6-.3l-26.5-29.3a4.71,4.71,0,0,1-.1-6.2,8,8,0,0,1,10.1-1.9l1.9,1.1a5.58,5.58,0,0,1,.8.5l10.1,7.6V8.05a7.8,7.8,0,1,1,15.6,0v19.5a7.39,7.39,0,0,1,5.9-2.9,7.66,7.66,0,0,1,7.2,5.3,6.92,6.92,0,0,1,12.6,3.3,6.53,6.53,0,0,1,4.9-2.3,6.38,6.38,0,0,1,6.4,6.4V57a110.78,110.78,0,0,1-2.8,25l-.8,4.8A.87.87,0,0,1,87.25,87.35Zm-43.5-1.6h42.9l.9-4.1A114,114,0,0,0,90.25,57V37.35a4.9,4.9,0,0,0-9.8,0v7.5a.79.79,0,0,1-.8.8.74.74,0,0,1-.8-.8v-11a5.4,5.4,0,1,0-10.8,0V44a.79.79,0,0,1-.8.8.74.74,0,0,1-.8-.8V32.05a5.91,5.91,0,0,0-5.9-5.9,6,6,0,0,0-5.9,5.9v11.7a.79.79,0,0,1-.8.8.74.74,0,0,1-.8-.8V8.05a6.3,6.3,0,1,0-12.6,0v52.3a.84.84,0,0,1-.4.7.75.75,0,0,1-.8-.1l-11.2-8.4a1.61,1.61,0,0,0-.7-.4l-1.9-1.1a6.59,6.59,0,0,0-8.2,1.5,3.06,3.06,0,0,0,.1,4.1Z"/><path class="cls-1" d="M87.25,100.25H43.35a.79.79,0,0,1-.8-.8V86.55a.79.79,0,0,1,.8-.8.74.74,0,0,1,.8.8v12.2h42.3V86.55a.79.79,0,0,1,.8-.8.74.74,0,0,1,.8.8v12.9A.79.79,0,0,1,87.25,100.25Z"/><path class="cls-1" d="M27.75,10.85H1.05a.79.79,0,0,1-.8-.8.71.71,0,0,1,.8-.7h26.7a.79.79,0,0,1,.8.8A.71.71,0,0,1,27.75,10.85Z"/><path class="cls-1" d="M22.25,15.85a1.42,1.42,0,0,1-.6-.2.78.78,0,0,1,0-1.1l4.8-4.4-4.9-4.4a.78.78,0,0,1,1.1-1.1l5.5,5c.2.1.2.4.2.6a1.42,1.42,0,0,1-.2.6l-5.5,5Z"/><path class="cls-1" d="M27.75,26.25H1.05a.79.79,0,0,1-.8-.8.74.74,0,0,1,.8-.8h26.7a.8.8,0,0,1,0,1.6Z"/><path class="cls-1" d="M6.55,31.25a.76.76,0,0,1-.5-.2l-5.5-5c-.2-.1-.2-.4-.2-.6a1.42,1.42,0,0,1,.2-.6l5.5-5A.78.78,0,1,1,7.15,21l-4.9,4.4,4.8,4.4a.78.78,0,0,1,0,1.1A.51.51,0,0,1,6.55,31.25Z"/></g></g></svg>