<?xml version="1.0" encoding="UTF-8"?><svg id="Layer_2" xmlns="http://www.w3.org/2000/svg" viewBox="0 0 1200 1200"><g id="Layer_1-2"><path d="M600,0C269.1,0,0,269.1,0,600s269.1,600,600,600,600-269.1,600-600S930.9,0,600,0Zm461.18,359.93h-232.88c-10.27-62.59-24.38-119.85-42.04-169.24-12.04-33.75-25.76-63.6-41.18-89.85,137.48,39.79,251.21,134.44,316.09,259.09h0Zm-294.07,240.07c0,56.18-3.94,109.2-9.52,160.01H456.88c-5.59-50.81-9.52-103.84-9.52-160.01s3.9-109.27,9.52-160.09h300.71c5.66,50.81,9.52,103.88,9.52,160.09ZM559.84,109.84c18.45-21.86,33.19-28.99,45.38-29.62,1.84,0,3.6,.26,5.4,.3,11.89,1.2,26.44,8.51,43.99,29.29,19.31,22.84,39.41,60.07,56.4,107.74,14.51,40.57,26.59,88.95,35.96,142.35H467.4c9.38-53.4,21.52-101.77,36-142.35,17.07-47.62,37.17-84.83,56.44-107.7h0Zm-87.97-13.35c-16.54,27.26-31.01,58.61-43.76,94.24-17.62,49.35-31.76,106.65-42.04,169.24H138.76C206.26,230.22,326.78,133.17,471.87,96.5h0ZM79.99,600c0-55.91,9-109.65,25.24-160.09H375.37c-5.21,50.92-8.1,104.55-8.1,160.09s2.89,109.01,8.1,160.01H105.22c-16.24-50.44-25.24-104.1-25.24-160.01Zm58.84,240.07h247.27c10.27,62.66,24.38,120.04,42.04,169.46,12.71,35.59,27.23,66.82,43.76,93.98-145.05-36.68-265.54-133.76-333.07-263.44h0Zm515.78,250.09c-17.44,20.62-31.84,27.94-43.65,29.21-1.95,.04-3.82,.3-5.7,.3-12.19-.64-26.96-7.69-45.38-29.55-19.31-22.84-39.38-59.85-56.4-107.51-14.48-40.57-26.7-89.06-36.07-142.57h279.68c-9.38,53.51-21.52,102-36.04,142.57-17.03,47.7-37.13,84.68-56.44,107.55h0Zm90.56,9c15.41-26.18,29.02-55.91,41.1-89.62,17.66-49.43,31.84-106.8,42.11-169.46h232.73c-64.88,124.57-178.5,219.3-315.94,259.09h0Zm93.82-339.16c5.25-50.96,8.14-104.44,8.14-160.01s-2.89-109.16-8.14-160.09h255.68c16.27,50.44,25.24,104.18,25.24,160.09s-8.96,109.57-25.24,160.01h-255.68Z"/></g></svg>