<?xml version="1.0" encoding="UTF-8"?>
<svg width="1200pt" height="1200pt" version="1.1" viewBox="0 0 1200 1200" xmlns="http://www.w3.org/2000/svg">
 <g>
  <path d="m850 362.5h-212.5v-87.5c0-9.9453 3.9492-19.484 10.984-26.516 7.0312-7.0352 16.57-10.984 26.516-10.984 29.828-0.027344 58.43-11.887 79.52-32.98 21.094-21.09 32.953-49.691 32.98-79.52v-25c0-13.398-7.1484-25.777-18.75-32.477-11.602-6.6992-25.898-6.6992-37.5 0-11.602 6.6992-18.75 19.078-18.75 32.477v25c0 9.9453-3.9492 19.484-10.984 26.516-7.0312 7.0352-16.57 10.984-26.516 10.984-29.828 0.027344-58.43 11.887-79.52 32.98-21.094 21.09-32.953 49.691-32.98 79.52v87.5h-212.5c-76.223 0.09375-149.29 30.414-203.19 84.309-53.895 53.898-84.215 126.97-84.309 203.19v270.5c-0.86328 43.375 11.258 86.02 34.805 122.46 23.547 36.438 57.445 65.008 97.344 82.043 16.824 6.707 34.551 10.887 52.602 12.398 3.75 0 7.3984 0.39844 11.051 0.39844 86.051 0 149.25-75 205.25-141.6 45-53.449 91.551-108.7 136.45-108.7s91.398 55.25 136.45 108.7c58.352 69.352 123.95 147.65 216.35 141.2v0.003907c18.016-1.5156 35.707-5.6953 52.5-12.398 39.91-17.027 73.82-45.594 97.375-82.031 23.555-36.441 35.684-79.086 34.824-122.47v-270.5c-0.09375-76.223-30.414-149.29-84.309-203.19-53.898-53.895-126.97-84.215-203.19-84.309zm212.5 558c0.92188 28.414-6.6797 56.457-21.828 80.516s-37.148 43.035-63.172 54.484c-9.6055 3.832-19.707 6.2734-30 7.25-53.199 3.6016-102.1-53.699-153.45-114.7-56.301-66.699-114.05-135.55-194.05-135.55s-137.75 68.852-193.8 135.4c-51.398 61-99.551 118.55-153.45 114.7v0.003906c-10.578-0.98828-20.953-3.5156-30.801-7.5-25.871-11.488-47.727-30.434-62.77-54.41-15.043-23.98-22.594-51.898-21.68-80.191v-270.5c0.066406-56.34 22.477-110.35 62.312-150.19s93.848-62.246 150.19-62.312h500c56.34 0.066406 110.35 22.477 150.19 62.312s62.246 93.848 62.312 150.19z"/>
  <path d="m425 637.5h-37.5v-37.5c0-13.398-7.1484-25.777-18.75-32.477-11.602-6.6992-25.898-6.6992-37.5 0-11.602 6.6992-18.75 19.078-18.75 32.477v37.5h-37.5c-13.398 0-25.777 7.1484-32.477 18.75-6.6992 11.602-6.6992 25.898 0 37.5 6.6992 11.602 19.078 18.75 32.477 18.75h37.5v37.5c0 13.398 7.1484 25.777 18.75 32.477 11.602 6.6992 25.898 6.6992 37.5 0 11.602-6.6992 18.75-19.078 18.75-32.477v-37.5h37.5c13.398 0 25.777-7.1484 32.477-18.75 6.6992-11.602 6.6992-25.898 0-37.5-6.6992-11.602-19.078-18.75-32.477-18.75z"/>
  <path d="m925 625c0 27.613-22.387 50-50 50s-50-22.387-50-50 22.387-50 50-50 50 22.387 50 50"/>
  <path d="m825 725c0 27.613-22.387 50-50 50s-50-22.387-50-50 22.387-50 50-50 50 22.387 50 50"/>
 </g>
</svg>
