<?xml version="1.0" encoding="UTF-8"?>
<svg id="Layer_2" xmlns="http://www.w3.org/2000/svg" viewBox="0 0 1197.62 845.69">
    <g id="Layer_1-2">
        <path
            d="M806.13,15.32c-7.66-9.19-18.84-14.73-30.79-15.27-11.95-.54-23.58,3.97-32.04,12.43-8.46,8.46-12.98,20.09-12.43,32.05,.54,11.95,6.08,23.13,15.27,30.79l306.12,306.48H40.45c-14.7,.78-27.97,9.07-35.1,21.96-7.13,12.88-7.13,28.52,0,41.41,7.14,12.88,20.4,21.18,35.1,21.96h1011.8l-306.6,306.12c-7.72,8.08-12.02,18.83-12.02,30s4.3,21.92,12.02,30c7.95,7.97,18.74,12.46,30,12.46s22.05-4.48,30-12.46l379.2-379.2c8.15-7.85,12.76-18.68,12.76-30s-4.61-22.15-12.76-30L806.13,15.32Z" />
    </g>
</svg>