<?xml version="1.0" encoding="utf-8"?>
<!-- Generator: Adobe Illustrator 26.0.1, SVG Export Plug-In . SVG Version: 6.00 Build 0)  -->
<svg version="1.1" id="Layer_1" xmlns="http://www.w3.org/2000/svg" xmlns:xlink="http://www.w3.org/1999/xlink" x="0px" y="0px"
	 viewBox="0 0 100 100" style="enable-background:new 0 0 100 100;" xml:space="preserve">
<style type="text/css">
	.st0{stroke:#000000;stroke-width:0.5;stroke-miterlimit:10;}
</style>
<g>
	<path class="st0" d="M91.2,87.1H47.3c-0.2,0-0.4-0.1-0.6-0.3L20.2,57.5c-1.6-1.7-1.6-4.4-0.1-6.2c2.5-3,6.7-3.8,10.1-1.9l1.9,1.1
		c0.3,0.2,0.6,0.3,0.8,0.5L43,58.6V7.8C43,3.5,46.5,0,50.8,0s7.8,3.5,7.8,7.8v19.5c1.4-1.8,3.5-2.9,5.9-2.9c3.4,0,6.2,2.3,7.2,5.3
		c1.3-1.8,3.3-3,5.7-3c3.6,0,6.6,2.8,6.9,6.3c1.2-1.4,3-2.3,4.9-2.3c3.6,0,6.4,2.9,6.4,6.4v19.6c0,8.4-0.9,16.8-2.8,25L92,86.5
		C91.9,86.8,91.6,87.1,91.2,87.1z M47.7,85.5h42.9l0.9-4.1c1.8-8.1,2.7-16.4,2.7-24.7V37.1c0-2.7-2.2-4.9-4.9-4.9
		c-2.7,0-4.9,2.2-4.9,4.9v7.5c0,0.4-0.3,0.8-0.8,0.8s-0.8-0.3-0.8-0.8v-11c0-3-2.4-5.4-5.4-5.4S72,30.6,72,33.6v10.1
		c0,0.4-0.3,0.8-0.8,0.8s-0.8-0.3-0.8-0.8V31.8c0-3.3-2.7-5.9-5.9-5.9s-5.9,2.7-5.9,5.9v11.7c0,0.4-0.3,0.8-0.8,0.8S57,44,57,43.5
		V7.8c0-3.5-2.8-6.3-6.3-6.3s-6.3,2.8-6.3,6.3v52.3c0,0.3-0.2,0.6-0.4,0.7c-0.3,0.1-0.6,0.1-0.8-0.1L32,52.3
		c-0.2-0.2-0.4-0.3-0.7-0.4l-1.9-1.1c-2.7-1.5-6.2-0.9-8.2,1.5c-1,1.2-1,3,0.1,4.1L47.7,85.5z"/>
	<path class="st0" d="M91.2,100H47.3c-0.4,0-0.8-0.3-0.8-0.8V86.3c0-0.4,0.3-0.8,0.8-0.8s0.8,0.3,0.8,0.8v12.2h42.3V86.3
		c0-0.4,0.3-0.8,0.8-0.8s0.8,0.3,0.8,0.8v12.9C92,99.7,91.6,100,91.2,100z"/>
	<path class="st0" d="M31.7,10.6H5c-0.4,0-0.8-0.3-0.8-0.8S4.6,9.1,5,9.1h26.7c0.4,0,0.8,0.3,0.8,0.8S32.1,10.6,31.7,10.6z"/>
	<path class="st0" d="M26.2,15.6c-0.2,0-0.4-0.1-0.6-0.2c-0.3-0.3-0.3-0.8,0-1.1l4.8-4.4l-4.9-4.4c-0.3-0.3-0.3-0.8,0-1.1
		c0.3-0.3,0.8-0.3,1.1,0l5.5,5c0.2,0.1,0.2,0.4,0.2,0.6s-0.1,0.4-0.2,0.6l-5.5,5C26.6,15.6,26.4,15.6,26.2,15.6z"/>
	<path class="st0" d="M31.7,26H5c-0.4,0-0.8-0.3-0.8-0.8s0.3-0.8,0.8-0.8h26.7c0.4,0,0.8,0.3,0.8,0.8S32.1,26,31.7,26z"/>
	<path class="st0" d="M10.5,31c-0.2,0-0.4-0.1-0.5-0.2l-5.5-5c-0.2-0.1-0.2-0.4-0.2-0.6s0.1-0.4,0.2-0.6l5.5-5
		c0.3-0.3,0.8-0.3,1.1,0s0.3,0.8,0,1.1l-4.9,4.4l4.8,4.4c0.3,0.3,0.3,0.8,0,1.1C10.9,30.9,10.7,31,10.5,31z"/>
</g>
</svg>
