<?xml version="1.0" encoding="UTF-8"?>
<svg width="1200pt" height="1200pt" version="1.1" viewBox="0 0 1200 1200" xmlns="http://www.w3.org/2000/svg">
    <path
        d="m600 0c-330.9 0-600 269.1-600 600s269.1 600 600 600 600-269.1 600-600-269.1-600-600-600zm461.18 359.93h-232.88c-10.273-62.586-24.375-119.85-42.039-169.24-12.039-33.75-25.762-63.602-41.176-89.852 137.48 39.789 251.21 134.44 316.09 259.09zm-294.07 240.07c0 56.176-3.9375 109.2-9.5234 160.01h-300.71c-5.5859-50.812-9.5234-103.84-9.5234-160.01 0-56.211 3.8984-109.27 9.5234-160.09h300.71c5.6602 50.812 9.5234 103.88 9.5234 160.09zm-207.27-490.16c18.449-21.863 33.188-28.988 45.375-29.625 1.8359 0 3.6016 0.26172 5.3984 0.30078 11.887 1.1992 26.438 8.5117 43.988 29.289 19.312 22.836 39.414 60.074 56.398 107.74 14.512 40.574 26.586 88.949 35.961 142.35h-279.56c9.375-53.398 21.523-101.77 36-142.35 17.066-47.625 37.168-84.828 56.441-107.7zm-87.973-13.348c-16.539 27.262-31.012 58.613-43.762 94.238-17.625 49.352-31.762 106.65-42.039 169.24l-247.31-0.003906c67.5-129.75 188.02-226.8 333.11-263.47zm-391.88 503.51c0-55.914 9-109.65 25.238-160.09h270.15c-5.2109 50.922-8.1016 104.55-8.1016 160.09s2.8867 109.01 8.1016 160.01h-270.15c-16.238-50.438-25.238-104.1-25.238-160.01zm58.836 240.07h247.27c10.273 62.664 24.375 120.04 42.039 169.46 12.711 35.586 27.227 66.824 43.762 93.977-145.05-36.676-265.54-133.76-333.07-263.44zm515.78 250.09c-17.438 20.625-31.836 27.938-43.648 29.211-1.9492 0.039062-3.8242 0.30078-5.6992 0.30078-12.188-0.63672-26.961-7.6875-45.375-29.551-19.312-22.836-39.375-59.852-56.398-107.51-14.477-40.574-26.699-89.062-36.074-142.57h279.68c-9.375 53.512-21.523 102-36.039 142.57-17.031 47.699-37.129 84.676-56.441 107.55zm90.562 9c15.414-26.176 29.023-55.914 41.102-89.625 17.664-49.426 31.836-106.8 42.113-169.46h232.73c-64.879 124.57-178.5 219.3-315.94 259.09zm93.824-339.15c5.25-50.961 8.1367-104.44 8.1367-160.01s-2.8867-109.16-8.1367-160.09h255.68c16.273 50.438 25.238 104.18 25.238 160.09 0 55.914-8.9609 109.57-25.238 160.01z" />
</svg>