<svg xmlns="http://www.w3.org/2000/svg" viewBox="0 -10 91 110">
  <defs>
    <style>
      .cls-1 {
        stroke: #dad2d8;
        stroke-width: 0.75px;
      }

      .cls-1,
      .cls-2,
      .cls-3 {
        stroke-miterlimit: 10;
      }

      .cls-2 {
        fill: #dad2d8;
      }

      .cls-2,
      .cls-3 {
        stroke: #000;
      }

      .cls-3 {
        fill: #ff6700;
      }
    </style>
  </defs>
  <g id="Layer_2" data-name="Layer 2">
    <g id="Layer_1-2" data-name="Layer 1">
      <path class="cls-1"
        d="M10.5,9.18a1.27,1.27,0,0,0,1.6.89L25.8,7.38l8.6,3.69v4.7H30.2a1.61,1.61,0,0,0-1.1.5L12.2,36a.54.54,0,0,0-.2.41v.09a.61.61,0,0,0-.1.41V44a1.38,1.38,0,0,0,1.4,1.41h.1a7,7,0,0,0,2.7,4.2v5.7a1.37,1.37,0,0,0,1.4,1.4H28.8a1.37,1.37,0,0,0,1.4-1.4v-4.2h31v4.2a1.37,1.37,0,0,0,1.4,1.4H73.9a1.37,1.37,0,0,0,1.4-1.4v-5.7a7,7,0,0,0,2.7-4.2h.1A1.37,1.37,0,0,0,79.5,44V36.88a.64.64,0,0,0-.1-.41v-.09c-.1-.1-.1-.2-.2-.41L62.3,16.27a1.61,1.61,0,0,0-1.1-.5H57v-4.7l8.6-3.7,13.7,2.7a1.47,1.47,0,0,0,1.6-.9L82.3,5a1.56,1.56,0,0,0-.9-1.8h-.2L65.7.38a2.2,2.2,0,0,0-.8.1L50.8,6.08a1.42,1.42,0,0,0-.9,1.3v8.39H41.4V7.38a1.44,1.44,0,0,0-.9-1.31L26.4.48a2,2,0,0,0-.8-.1L10.1,3.17A1.3,1.3,0,0,0,9,4.77V5Zm10.7,20.7H39.5l-1.9,5.59H16.3Zm29.6,5.7H40.6L42.5,30h6.4Zm11.8,2.8v4.2H61.2v-4.2Zm14.1,0v4.2H75.3v-4.2Zm-4.2,4.2H65.4v-4.2h7.1Zm-14.1,0H55.6v-4.2h2.8Zm-5.6,0H38.7v-4.2H52.8Zm-24,0v-4.2h1.4v4.2Zm-14.1,0v-4.2h1.4v4.2Zm4.2-4.2H26v4.2H18.9Zm14.1,0h2.8v4.2H33Zm-5.6,15.5H18.9v-3a7.32,7.32,0,0,0,1.4.09h7.1Zm45.1,0H64v-2.8h7.1a6.6,6.6,0,0,0,1.4-.1Zm-1.4-5.7H20.3a4.21,4.21,0,0,1-4-2.8H75.1A4.21,4.21,0,0,1,71.1,48.18Zm2.8-12.6H53.8L51.9,30H70.3l4.8,5.6Zm-6.1-8.51H23.6l7.3-8.39H60.6ZM52.8,8.28l12.8-5.1,13.5,2.5-.5,1.5L65.7,4.58a1.06,1.06,0,0,0-.8.1L55,8.88a1.4,1.4,0,0,0-.9,1.3v5.6H52.7V8.28Zm-27-5.1,12.8,5.1v7.5H37.2v-5.6a1.28,1.28,0,0,0-.9-1.3l-9.8-4.2a2.49,2.49,0,0,0-.8-.1L12.8,7.18l-.5-1.5Z" />
      <path class="cls-2"
        d="M86.8,60.47a9.84,9.84,0,0,0-8.7,9.8,10,10,0,0,0-9.2,6.2,14.79,14.79,0,0,0-18.4,10,16,16,0,0,0-.5,2.1,7.2,7.2,0,0,0-4.4,1.8,7.91,7.91,0,0,0-4.4-1.8,14.7,14.7,0,0,0-16.7-12.5,16,16,0,0,0-2.1.5,9.77,9.77,0,0,0-9.2-6.2,9.84,9.84,0,0,0-8.7-9.8,4.3,4.3,0,0,0-4-2.9v2.8a1.37,1.37,0,0,1,1.4,1.4,1.37,1.37,0,0,0,1.4,1.4,7.17,7.17,0,0,1,7.1,7,5.75,5.75,0,0,1-.1,1.31,1.39,1.39,0,0,0,1.1,1.6h.5a5.7,5.7,0,0,1,1.3-.1,7.07,7.07,0,0,1,6.9,5.5,1.47,1.47,0,0,0,1.7,1.1c.1,0,.2,0,.2-.1a12,12,0,0,1,15.6,6.5,13.67,13.67,0,0,1,.9,4,1.23,1.23,0,0,0,.5,1,1.13,1.13,0,0,0,1.1.3h.5a4.74,4.74,0,0,1,3.8,1.9,1.43,1.43,0,0,0,2,.2c.1-.1.2-.1.2-.2a4.74,4.74,0,0,1,3.8-1.9h.5a1.46,1.46,0,0,0,1.6-1.2v-.1A12,12,0,0,1,65,78.68a13,13,0,0,1,4,.9,1.29,1.29,0,0,0,1.2-.1,1.27,1.27,0,0,0,.7-.9,7.07,7.07,0,0,1,6.9-5.5,5.7,5.7,0,0,1,1.3.1,1.39,1.39,0,0,0,1.6-1.1v-.5a5.7,5.7,0,0,1-.1-1.3,7,7,0,0,1,7.1-7,1.37,1.37,0,0,0,1.4-1.4,1.37,1.37,0,0,1,1.4-1.4v-2.8A4,4,0,0,0,86.8,60.47Z" />
      <path class="cls-3"
        d="M20.3,58.08H17.5a15,15,0,0,0,4.4,10.6l.2.19a1.52,1.52,0,0,0,2,0l.2-.19a15,15,0,0,0,4.4-10.6H25.9a12.42,12.42,0,0,1-2.8,7.8A12.42,12.42,0,0,1,20.3,58.08Z" />
      <path class="cls-3"
        d="M65.4,58.08H62.6A15,15,0,0,0,67,68.68l.2.19a1.52,1.52,0,0,0,2,0l.2-.19a15,15,0,0,0,4.4-10.6H71a12.42,12.42,0,0,1-2.8,7.8A12.42,12.42,0,0,1,65.4,58.08Z" />
    </g>
  </g>
</svg>