<svg xmlns="http://www.w3.org/2000/svg"
  viewBox="0 0 353.17 191.85">
  <defs>
    <style>.cls-1{fill:#720910;}.cls-2{fill:#042b62;stroke:#000;stroke-miterlimit:10;}</style>
  </defs>
  <g id="Layer_2"
    data-name="Layer 2">
    <g id="Layer_1-2"
      data-name="Layer 1">
      <path class="cls-1"
        d="M11.79,0C5.26,0,0,4.76,0,10.68V52.55c0,5.91,5.26,10.67,11.79,10.67H58c6.53,0,11.79-4.76,11.79-10.67V10.68C69.81,4.76,64.55,0,58,0Zm4.92,6.73H53.1c5.14,0,9.29,3.74,9.29,8.4v33c0,4.66-4.15,8.4-9.29,8.4H16.71c-5.14,0-9.29-3.74-9.29-8.4v-33C7.42,10.47,11.57,6.73,16.71,6.73Z" />
      <path class="cls-1"
        d="M82.41,0C75.88,0,70.62,4.76,70.62,10.68V52.55c0,5.91,5.26,10.67,11.79,10.67h46.23c6.54,0,11.79-4.76,11.79-10.67V10.68C140.43,4.76,135.18,0,128.64,0Zm4.92,6.73h36.39c5.15,0,9.29,3.74,9.29,8.4v33c0,4.66-4.14,8.4-9.29,8.4H87.33c-5.14,0-9.28-3.74-9.28-8.4v-33C78.05,10.47,82.19,6.73,87.33,6.73Z" />
      <path class="cls-1"
        d="M82.41,64c-6.53,0-11.79,4.76-11.79,10.68v41.87c0,5.91,5.26,10.67,11.79,10.67h46.23c6.54,0,11.79-4.76,11.79-10.67V74.65c0-5.92-5.25-10.68-11.79-10.68Zm4.92,6.73h36.39c5.15,0,9.29,3.74,9.29,8.4v33c0,4.66-4.14,8.4-9.29,8.4H87.33c-5.14,0-9.28-3.74-9.28-8.4v-33C78.05,74.44,82.19,70.7,87.33,70.7Z" />
      <path class="cls-1"
        d="M153,64c-6.54,0-11.79,4.76-11.79,10.68v41.87c0,5.91,5.25,10.67,11.79,10.67h46.23c6.53,0,11.79-4.76,11.79-10.67V74.65c0-5.92-5.26-10.68-11.79-10.68ZM158,70.7h36.4c5.14,0,9.28,3.74,9.28,8.4v33c0,4.66-4.14,8.4-9.28,8.4H158c-5.14,0-9.28-3.74-9.28-8.4v-33C148.67,74.44,152.81,70.7,158,70.7Z" />
      <path class="cls-2"
        d="M270.39,128.13c6.53,0,11.79,4.76,11.79,10.68v41.87c0,5.91-5.26,10.67-11.79,10.67H224.16c-6.53,0-11.79-4.76-11.79-10.67V138.81c0-5.92,5.26-10.68,11.79-10.68Zm-4.92,6.73H229.08c-5.14,0-9.29,3.74-9.29,8.4v33c0,4.66,4.15,8.4,9.29,8.4h36.39c5.14,0,9.29-3.74,9.29-8.4v-33C274.76,138.6,270.61,134.86,265.47,134.86Z" />
      <path class="cls-2"
        d="M199.9,128.13c6.53,0,11.79,4.76,11.79,10.68v41.87c0,5.91-5.26,10.67-11.79,10.67H153.67c-6.53,0-11.79-4.76-11.79-10.67V138.81c0-5.92,5.26-10.68,11.79-10.68ZM195,134.86H158.59c-5.14,0-9.28,3.74-9.28,8.4v33c0,4.66,4.14,8.4,9.28,8.4H195c5.15,0,9.29-3.74,9.29-8.4v-33C204.27,138.6,200.13,134.86,195,134.86Z" />
      <path class="cls-2"
        d="M270.39,64.28c6.53,0,11.79,4.76,11.79,10.68v41.87c0,5.92-5.26,10.68-11.79,10.68H224.16c-6.53,0-11.79-4.76-11.79-10.68V75c0-5.92,5.26-10.68,11.79-10.68ZM265.47,71H229.08c-5.14,0-9.29,3.75-9.29,8.4v33c0,4.65,4.15,8.4,9.29,8.4h36.39c5.14,0,9.29-3.75,9.29-8.4v-33C274.76,74.76,270.61,71,265.47,71Z" />
      <path class="cls-2"
        d="M340.88,64.28c6.53,0,11.79,4.76,11.79,10.68v41.87c0,5.92-5.26,10.68-11.79,10.68H294.65c-6.53,0-11.79-4.76-11.79-10.68V75c0-5.92,5.26-10.68,11.79-10.68ZM336,71H299.57c-5.15,0-9.29,3.75-9.29,8.4v33c0,4.65,4.14,8.4,9.29,8.4H336c5.14,0,9.28-3.75,9.28-8.4v-33C345.24,74.76,341.1,71,336,71Z" />
    </g>
  </g>
</svg>