<svg xmlns="http://www.w3.org/2000/svg" viewBox="0 0 884.03 703.78">
  <defs>
    <style>
      .cls-1,
      .cls-3 {
        opacity: 0.3;
      }

      .cls-2,
      .cls-3 {
        fill: #82846d;
      }

      .cls-4 {
        fill: #732c2c;
      }

      .cls-5 {
        fill: #7b8a00;
      }
    </style>
  </defs>
  <g id="Layer_2" data-name="Layer 2">
    <g id="Layer_1-2" data-name="Layer 1">
      <g class="cls-1">
        <path class="cls-2"
          d="M124.77,447.78h-10c-1,0-1.71-.92-1.71-2.31s.68-2.31,1.71-2.31h8.23v-25l-4.8-23.35H100.76v39.3c0,1.39-.69,2.31-1.71,2.31H47.6v6.71h8.23c1,0,1.71.92,1.71,2.31s-.68,2.31-1.71,2.31H45.88c-1,0-1.71-.92-1.71-2.31V434.14c0-1.39.68-2.31,1.71-2.31H97.33v-39.3c0-1.39.69-2.32,1.72-2.32h20.57c.86,0,1.38.7,1.72,1.62l5.14,25.43V445.7A1.86,1.86,0,0,1,124.77,447.78Z" />
        <path class="cls-2"
          d="M107.28,447.78H63.37c-1,0-1.71-.92-1.71-2.31s.69-2.31,1.71-2.31h43.74c1,0,1.71.92,1.71,2.31S108.13,447.78,107.28,447.78Z" />
        <path class="cls-2"
          d="M99.05,436.45H45.88c-1,0-1.71-.92-1.71-2.31V378.65c0-1.38.68-2.31,1.71-2.31H99.05c1,0,1.71.93,1.71,2.31v55.49C100.76,435.53,99.9,436.45,99.05,436.45ZM47.6,431.83H97.33V381H47.6Z" />
        <path class="cls-2"
          d="M124.77,422.58h-.17L98.87,418a2.66,2.66,0,0,1-1.54-2.55,2.27,2.27,0,0,1,1.89-2.08L124.94,418a2.63,2.63,0,0,1,1.54,2.54C126.31,421.66,125.63,422.58,124.77,422.58Z" />
        <path class="cls-2"
          d="M59.6,459.57c-3.77,0-6.86-4.16-6.86-9.25s3.09-9.24,6.86-9.24,6.86,4.16,6.86,9.24S63.37,459.57,59.6,459.57Zm0-14.1c-1.88,0-3.43,2.08-3.43,4.62s1.55,4.63,3.43,4.63S63,452.64,63,450.09,61.49,445.47,59.6,445.47Z" />
        <path class="cls-2"
          d="M111.05,459.57c-3.77,0-6.86-4.16-6.86-9.25s3.09-9.24,6.86-9.24,6.86,4.16,6.86,9.24S114.82,459.57,111.05,459.57Zm0-14.1c-1.89,0-3.43,2.08-3.43,4.62s1.54,4.63,3.43,4.63,3.43-2.08,3.43-4.63S112.94,445.47,111.05,445.47Z" />
      </g>
      <path class="cls-3"
        d="M844.19,391.1a1.64,1.64,0,0,0-1.52.44l-8.58,8.64a5.4,5.4,0,0,1-7.62,0l0,0a5.45,5.45,0,0,1,0-7.68l8.43-8.48a1.65,1.65,0,0,0-.64-2.73,17.47,17.47,0,0,0-7-.81,17.82,17.82,0,0,0-15.59,21.94l-9.08,9.13-12.64-12.7-.14-6.88a1.63,1.63,0,0,0-.74-1.34L774,380.68a1.64,1.64,0,0,0-2.06.21l-7.34,7.38a1.65,1.65,0,0,0-.21,2.07l9.89,15.16a1.64,1.64,0,0,0,1.33.75l6.84.14,12.64,12.7-8.64,8.69a17.53,17.53,0,0,0-9.34.24,17.77,17.77,0,0,0-11.67,22.47,1.64,1.64,0,0,0,2.06,1,1.62,1.62,0,0,0,.65-.4l8.44-8.48a5.37,5.37,0,0,1,7.61,0l0,0a5.45,5.45,0,0,1,0,7.68L775.62,459a1.66,1.66,0,0,0,0,2.34,1.76,1.76,0,0,0,.59.38,17.49,17.49,0,0,0,6,1.05c.41,0,.82,0,1.24,0a17.79,17.79,0,0,0,15.87-22l3.45-3.47,2.51,2.53a1.69,1.69,0,0,0,2.32,0l.51-.52a1.11,1.11,0,0,1,1.57,1.58l-.51.52a1.65,1.65,0,0,0,0,2.33L824.39,459a12.67,12.67,0,0,0,17.87-18L827,425.72a1.64,1.64,0,0,0-2.31,0h0l-.5.51a1.14,1.14,0,0,1-1.57,0,1.12,1.12,0,0,1,0-1.58l.51-.51a1.65,1.65,0,0,0,0-2.33l-2.51-2.52,3.9-3.93a17.55,17.55,0,0,0,9.48-.28,17.75,17.75,0,0,0,11.58-22.27c-.07-.22-.14-.45-.22-.67A1.65,1.65,0,0,0,844.19,391.1Zm-47.87,48a1.65,1.65,0,0,0-.41,1.65,14.37,14.37,0,0,1-16,18.54l6.57-6.6a8.78,8.78,0,0,0,0-12.34,8.66,8.66,0,0,0-12.24,0l0,0-6.33,6.37A14.49,14.49,0,0,1,778,431.17a14.4,14.4,0,0,1,8.4,0,1.61,1.61,0,0,0,1.63-.41l9.31-9.36,7.08,7.12-4,4a1.65,1.65,0,0,0,0,2.33Zm27.1-9.22a4.36,4.36,0,0,0,2.38-.7L840,443.37a9.39,9.39,0,0,1-13.24,13.31h0l-14.14-14.22a4.4,4.4,0,0,0-6.07-6.11l-2.59-2.6,4-4a1.65,1.65,0,0,0,0-2.33L784.28,403.6a1.6,1.6,0,0,0-1.12-.48l-6.63-.15-8.69-13.31,5.45-5.49,13.25,8.74.13,6.67a1.64,1.64,0,0,0,.48,1.13l23.66,23.78a1.62,1.62,0,0,0,2.3,0h0l4-4,2.58,2.6a4.43,4.43,0,0,0,.59,5.51A4.36,4.36,0,0,0,823.42,429.85Zm19.69-30.67A14.49,14.49,0,0,1,833,411.93a14.28,14.28,0,0,1-8.51,0,1.63,1.63,0,0,0-1.64.41l-4.58,4.6a1.63,1.63,0,0,0-2.3,0h0L812,421l-7.08-7.12,9.76-9.81a1.65,1.65,0,0,0,.41-1.65,14.4,14.4,0,0,1,9.43-18.05,14.24,14.24,0,0,1,6-.56l-6.33,6.36a8.76,8.76,0,0,0,0,12.33,8.65,8.65,0,0,0,12.23.05l0-.05,6.57-6.6A15.62,15.62,0,0,1,843.11,399.18Z" />
      <path class="cls-3"
        d="M537.1,331s0,0,0,0a.14.14,0,0,0,0-.06,2.35,2.35,0,0,0-.17-.44l-.06-.11a2.15,2.15,0,0,0-.32-.41l0,0a2.14,2.14,0,0,0-.39-.28l-.11-.06a2.21,2.21,0,0,0-.51-.18h0l-59.93-11.74a.22.22,0,0,0,0-.08,2.09,2.09,0,0,0-1.64-1.58l-24.55-4.72a2.13,2.13,0,0,0-1.68.4l-.54.41-62.64-12.26a2.05,2.05,0,0,0-1.69.39l-35.68,27.51,0,.06a2,2,0,0,0-.32.33l-.06.07a2.64,2.64,0,0,0-.25.47l0,.12a2.59,2.59,0,0,0-.09.42s0,.08,0,.13,0,0,0,.07v43.89a2.1,2.1,0,0,0,1.7,2.06l61.89,12.12a2.06,2.06,0,0,0,1.63,1.72L436,394.08a1.84,1.84,0,0,0,.41,0,2.11,2.11,0,0,0,1.33-.48,2,2,0,0,0,.5-.62L499,404.9a1.81,1.81,0,0,0,.4,0,2.15,2.15,0,0,0,1.29-.43L536.33,377a2.11,2.11,0,0,0,.82-1.67V331.44A2.31,2.31,0,0,0,537.1,331Zm-87.65-15.41,19,3.66-32.58,25.16-19-3.66ZM414,344.46l20.35,3.9v41.09L414,385.39Zm58.62-23.1,57.47,11.25-31.25,24.1-57.43-11.25Zm-88-17.24,58.09,11.37-31.2,24.1-58.14-11.38Zm-34.1,27.81,59.32,11.62v6.69l-59.32-11.62Zm0,11,59.32,11.62v6.68l-59.32-11.62Zm0,11L409.8,365.5v6.69l-59.32-11.62Zm0,11,59.32,11.62v6.69l-59.32-11.62ZM533,374.3l-34.11,26.3-60.29-11.81V382.1L499,393.93a1.81,1.81,0,0,0,.4,0,2.08,2.08,0,0,0,1.29-.44l32.29-24.89v5.66Zm0-11-34.11,26.29-60.29-11.8v-6.69L499,383a1.84,1.84,0,0,0,.41,0,2.07,2.07,0,0,0,1.28-.44l32.29-24.9v5.67Zm0-11-34.11,26.3-60.29-11.81v-6.68L499,372a1.84,1.84,0,0,0,.41,0,2.07,2.07,0,0,0,1.28-.44l32.29-24.9v5.66Zm0-11-34.11,26.3-60.29-11.81v-6.69L499,361a2.71,2.71,0,0,0,.41,0,2.07,2.07,0,0,0,1.28-.44l32.29-24.9v5.66Z" />
      <path class="cls-4"
        d="M779.54,266.12a59.21,59.21,0,1,0-59.21-59.21A59.21,59.21,0,0,0,779.54,266.12Zm0-95.6a36.39,36.39,0,1,1-36.39,36.39A36.43,36.43,0,0,1,779.54,170.52Z" />
      <path class="cls-4"
        d="M810.66,307.59a50.6,50.6,0,0,1,50.54,50.55v128.3A12.59,12.59,0,0,1,848.65,499H822V628a12.59,12.59,0,0,1-12.55,12.55H749.64A12.59,12.59,0,0,1,737.08,628v-87.4a8.23,8.23,0,0,0-8.23-8.23H722.5a8.23,8.23,0,0,0-8.23,8.23V628a35.47,35.47,0,0,0,35.37,35.37h59.78A35.48,35.48,0,0,0,844.79,628V521.81h3.86A35.47,35.47,0,0,0,884,486.44V358.14a73.58,73.58,0,0,0-73.37-73.37H764a8.23,8.23,0,0,0-8.24,8.23v6.35a8.23,8.23,0,0,0,8.24,8.23h46.68Z" />
      <path class="cls-4"
        d="M163.7,206.91a59.21,59.21,0,1,0-59.21,59.21A59.21,59.21,0,0,0,163.7,206.91Zm-95.6,0a36.39,36.39,0,1,1,36.39,36.39A36.43,36.43,0,0,1,68.1,206.91Z" />
      <path class="cls-4"
        d="M0,358.14v128.3a35.47,35.47,0,0,0,35.37,35.37h3.86V628A35.48,35.48,0,0,0,74.6,663.35h59.78A35.47,35.47,0,0,0,169.75,628v-87.4a8.23,8.23,0,0,0-8.23-8.23h-6.35a8.23,8.23,0,0,0-8.23,8.23V628a12.59,12.59,0,0,1-12.56,12.55H74.6A12.59,12.59,0,0,1,62.05,628V499H35.37a12.59,12.59,0,0,1-12.55-12.56V358.14a50.6,50.6,0,0,1,50.54-50.55h44.89a8.22,8.22,0,0,0,8.23-8.23V293a8.22,8.22,0,0,0-8.23-8.23H73.37A73.57,73.57,0,0,0,0,358.14Z" />
      <path class="cls-4"
        d="M626.28,216.46A69.31,69.31,0,1,0,557,147.15,69.31,69.31,0,0,0,626.28,216.46Zm0-115.79a46.48,46.48,0,1,1-46.48,46.48A46.54,46.54,0,0,1,626.28,100.67Z" />
      <path class="cls-4"
        d="M662.71,267.27a63.06,63.06,0,0,1,63.06,63.06V480.51a18.58,18.58,0,0,1-18.59,18.58H679.85V646.17a18.61,18.61,0,0,1-18.58,18.58h-70a18.58,18.58,0,0,1-18.59-18.58V532.69a8.23,8.23,0,0,0-8.23-8.23h-6.35a8.23,8.23,0,0,0-8.23,8.23V646.17a41.52,41.52,0,0,0,41.4,41.4h70a41.52,41.52,0,0,0,41.41-41.4V521.91h4.51a41.52,41.52,0,0,0,41.41-41.4V330.33a86.36,86.36,0,0,0-85.88-85.88H598.43a8.23,8.23,0,0,0-8.23,8.24V259a8.22,8.22,0,0,0,8.23,8.23Z" />
      <path class="cls-4"
        d="M327.05,147.16a69.31,69.31,0,1,0-69.31,69.31A69.31,69.31,0,0,0,327.05,147.16Zm-115.79,0a46.48,46.48,0,1,1,46.48,46.48A46.54,46.54,0,0,1,211.26,147.16Z" />
      <path class="cls-4"
        d="M135.44,480.5a41.53,41.53,0,0,0,41.41,41.4h4.51V646.16a41.52,41.52,0,0,0,41.41,41.4h70a41.52,41.52,0,0,0,41.4-41.4V532.68a8.23,8.23,0,0,0-8.23-8.23h-6.35a8.23,8.23,0,0,0-8.23,8.23V646.16a18.61,18.61,0,0,1-18.58,18.58h-70a18.58,18.58,0,0,1-18.59-18.58V499.08H176.86a18.57,18.57,0,0,1-18.58-18.57V330.33a63.13,63.13,0,0,1,63.05-63.06h65.21a8.22,8.22,0,0,0,8.23-8.23v-6.35a8.23,8.23,0,0,0-8.23-8.24H221.33a86.36,86.36,0,0,0-85.88,85.88V480.5Z" />
      <path class="cls-4"
        d="M521.41,79.4A79.4,79.4,0,1,0,442,158.79,79.4,79.4,0,0,0,521.41,79.4Zm-136,0A56.58,56.58,0,1,1,442,136,56.64,56.64,0,0,1,385.44,79.4Z" />
      <path class="cls-4"
        d="M301.91,466.55A47.56,47.56,0,0,0,349.34,514h5.18V656.34a47.57,47.57,0,0,0,47.42,47.44H482.1a47.57,47.57,0,0,0,47.43-47.44V514h5.18a47.56,47.56,0,0,0,47.43-47.43v-172a98.67,98.67,0,0,0-98.38-98.38H400.3a98.67,98.67,0,0,0-98.38,98.38v172Zm22.81-172a75.65,75.65,0,0,1,75.57-75.57h83.46a75.65,75.65,0,0,1,75.57,75.57v172a24.64,24.64,0,0,1-24.61,24.61h-28V656.33a24.64,24.64,0,0,1-24.61,24.61H402a24.64,24.64,0,0,1-24.61-24.61V491.17h-28a24.64,24.64,0,0,1-24.61-24.61v-172Z" />
      <text />
      <path class="cls-5"
        d="M590.3,334.85l4.57-6.42h12l4.57,6.42v17.21H604.1V339.34l-1.53-2.14h-3.43l-1.52,2.14v59.45l1.52,2.14h3.43l1.53-2.14V376.55h-3.66v-9.2h11v35.93l-4.57,6.42h-12l-4.57-6.42Z" />
      <path class="cls-5"
        d="M616.06,328.43H633l4.58,6.42v33.79l-4,5.67,4.57,35.39H631l-4.49-34.65h-3.13V409.7h-7.32Zm14.18,36.14V339.12L628.72,337h-5.34v29.72h5.34Z" />
      <path class="cls-5"
        d="M664.08,403.28l-4.57,6.42H646.78l-4.57-6.42V334.85l4.57-6.42h12.73l4.57,6.42Zm-13-66.08-1.52,2.14v59.45l1.52,2.14h4.19l1.53-2.14V339.34l-1.53-2.14Z" />
      <path class="cls-5"
        d="M685.65,409.7H673.38l-4.57-6.42V328.43h7.32v70.36l1.52,2.14h3.73l1.53-2.14V328.43h7.32v74.85Z" />
      <path class="cls-5"
        d="M695.18,328.43h16.54l4.57,6.42v35.93l-4.57,6.41H702.5V409.7h-7.32ZM709,366.5V339.12L707.45,337h-5v31.65h5Z" />
      <path class="cls-5"
        d="M168.76,332.25h10.59c1,2.14,2,4.27,2.93,6.4v35.83c-1,2.13-1.95,4.26-2.93,6.4h-5.91v32.41h-4.68Zm8.83,38V342.92c-.32-.71-.65-1.42-1-2.14h-3.18v31.57h3.18Z" />
      <path class="cls-5"
        d="M184.77,332.25h10.84c1,2.14,1.95,4.27,2.93,6.4v33.7c-.86,1.88-1.73,3.76-2.59,5.65l2.93,35.29h-4.54l-2.88-34.55h-2v34.55h-4.69Zm9.08,36.05V342.92c-.32-.71-.65-1.42-1-2.14h-3.42v29.65h3.42Z" />
      <path class="cls-5"
        d="M215.53,406.89c-1,2.14-1.95,4.27-2.93,6.4h-8.15q-1.47-3.19-2.93-6.4V338.65q1.46-3.19,2.93-6.4h8.15c1,2.14,2,4.27,2.93,6.4ZM207.18,341l-1,2.13v59.29l1,2.13h2.69l1-2.13V343.13l-1-2.13Z" />
      <path class="cls-5"
        d="M218.61,332.25H229.2c1,2.14,2,4.27,2.93,6.4v35.83c-1,2.13-1.95,4.26-2.93,6.4h-5.91v32.41h-4.68Zm8.83,38V342.92l-1-2.14h-3.18v31.57h3.18Z" />
      <path class="cls-5" d="M234.62,332.25h11.57V341h-6.88v26.87h6v8.74h-6v27.94h7v8.74H234.62Z" />
      <path class="cls-5"
        d="M248.78,332.25h10.84c1,2.14,1.95,4.27,2.93,6.4v33.7c-.86,1.88-1.73,3.76-2.59,5.65l2.93,35.29h-4.54l-2.88-34.55h-2v34.55h-4.69Zm9.08,36.05V342.92c-.32-.71-.65-1.42-1-2.14h-3.42v29.65h3.42Z" />
      <path class="cls-5" d="M273.53,340.78v72.51h-4.68V340.78H264.4v-8.53H278v8.53Z" />
      <path class="cls-5"
        d="M284.52,413.29V386.74q-2.83-27.24-5.66-54.49h5q1.46,19.89,2.93,39.78,1.46-19.89,2.92-39.78h5q-2.82,27.25-5.66,54.49v26.55Z" />
      <path class="cls-5"
        d="M411.66,116c-4.16-2.4-8.42-5.18-11.33-8.58V51.1c2.95-3.45,7.7-6.42,12.18-9A4.54,4.54,0,0,1,419.29,46c.43,15.38,0,51-.75,66.33A4.59,4.59,0,0,1,411.66,116Zm-.87-66.33c-1.69,1-3.56,2.13-4,2.39v54.37l3.09,2a1.89,1.89,0,0,0,2.89-1.57l.82-55.51A1.88,1.88,0,0,0,410.79,49.7Z" />
      <path class="cls-5" d="M424.79,34.34a56.2,56.2,0,0,1,7.7-2.09V126.3a56.2,56.2,0,0,1-7.7-2.09Z" />
      <path class="cls-5"
        d="M437.89,31.45C444,30.84,454,32,460,33.3c1.62,2.83.95,32.91.95,45.5-1.4,2.1-2.82,4.27-4.25,6.48,1.62,13.48,3.22,26.62,4.81,39.23a57.81,57.81,0,0,1-7.48,1.92c-1.61-13.11-3.22-26.53-4.84-40.11l-3.38,0v41a55.31,55.31,0,0,1-7.93-.24Zm15.33,42.6V44.42l-1.64-2.69c-1.91-.21-3.83-.35-5.76-.4V76.49l5.76,0Z" />
      <path class="cls-5"
        d="M473.11,98.59q-.69,10.48-1.39,21.38a55.92,55.92,0,0,1-7.29,3.49c2.36-30.38,4.68-59.08,6.92-85.09A56,56,0,0,1,481,45.21c2,24.5,4,45.59,5.81,62.24a58.28,58.28,0,0,1-6.28,6.29q-.63-8.35-1.27-17.26C477.32,97.25,475.25,98,473.11,98.59Zm3.16-47.28c-.87,12.25-1.75,25.14-2.65,38.59q2.69-.45,5.21-1C478,77,477.13,64.47,476.27,51.31Z" />
    </g>
  </g>
</svg>