<?xml version="1.0" encoding="utf-8"?>
<!-- Generator: Adobe Illustrator 25.4.1, SVG Export Plug-In . SVG Version: 6.00 Build 0)  -->
<svg version="1.1" id="Layer_1" xmlns="http://www.w3.org/2000/svg" xmlns:xlink="http://www.w3.org/1999/xlink" x="0px" y="0px"
	 viewBox="0 0 100 100" style="enable-background:new 0 0 100 100;" xml:space="preserve">
<style type="text/css">
	.st0{fill:#D90429;}
	.st1{stroke:#FF47DA;stroke-width:0.75;stroke-miterlimit:10;}
	.st2{fill:#DAD2D8;stroke:#000000;stroke-miterlimit:10;}
	.st3{fill:#FF6700;stroke:#000000;stroke-miterlimit:10;}
</style>
<g>
	<path class="st0" d="M216.4,97.4h-82.7c-4.7,0-8.5-3.8-8.5-8.5V6.3c0-4.7,3.8-8.5,8.5-8.5h82.7c4.7,0,8.5,3.8,8.5,8.5v82.6
		C224.9,93.6,221.1,97.4,216.4,97.4z"/>
	<path class="st1" d="M139.8,10.5c0.2,0.7,0.9,1.1,1.6,0.9l13.7-2.7l8.6,3.7v4.7h-4.2c-0.4,0-0.8,0.2-1.1,0.5l-16.9,19.7
		c-0.1,0.1-0.2,0.2-0.2,0.4c0,0,0,0,0,0.1c-0.1,0.1-0.1,0.3-0.1,0.4c0,0,0,0,0,0.1v7c0,0.8,0.6,1.4,1.4,1.4h0.1
		c0.4,1.7,1.3,3.2,2.7,4.2v5.7c0,0.8,0.6,1.4,1.4,1.4h11.3c0.8,0,1.4-0.6,1.4-1.4v-4.2h31v4.2c0,0.8,0.6,1.4,1.4,1.4h11.3
		c0.8,0,1.4-0.6,1.4-1.4v-5.7c1.4-1,2.3-2.5,2.7-4.2h0.1c0.8,0,1.4-0.6,1.4-1.4v-7c0,0,0,0,0-0.1c0-0.1,0-0.3-0.1-0.4c0,0,0,0,0-0.1
		c-0.1-0.1-0.1-0.2-0.2-0.4l-16.9-19.7c-0.3-0.3-0.7-0.5-1.1-0.5h-4.2v-4.7l8.6-3.7l13.7,2.7c0.7,0.1,1.4-0.3,1.6-0.9l1.4-4.2
		c0.2-0.7-0.2-1.5-0.9-1.8c-0.1,0-0.1,0-0.2,0L195,1.7c-0.3,0-0.5,0-0.8,0.1l-14.1,5.6c-0.5,0.2-0.9,0.7-0.9,1.3v8.4h-8.5V8.7
		c0-0.6-0.4-1.1-0.9-1.3l-14.1-5.6c-0.2-0.1-0.5-0.1-0.8-0.1l-15.5,2.8c-0.8,0.1-1.3,0.9-1.1,1.6c0,0.1,0,0.1,0,0.2L139.8,10.5z
		 M150.5,31.2h18.3l-1.9,5.6h-21.3L150.5,31.2z M180.1,36.9h-10.2l1.9-5.6h6.4L180.1,36.9z M191.9,39.7v4.2h-1.4v-4.2H191.9z
		 M206,39.7v4.2h-1.4v-4.2H206z M201.8,43.9h-7.1v-4.2h7.1V43.9z M187.7,43.9h-2.8v-4.2h2.8V43.9z M182.1,43.9h-14.1v-4.2h14.1V43.9
		z M158.1,43.9v-4.2h1.4v4.2H158.1z M144,43.9v-4.2h1.4v4.2H144z M148.2,39.7h7.1v4.2h-7.1V39.7z M162.3,39.7h2.8v4.2h-2.8V39.7z
		 M156.7,55.2h-8.5v-3c0.5,0.1,0.9,0.1,1.4,0.1h7.1V55.2z M201.8,55.2h-8.5v-2.8h7.1c0.5,0,0.9,0,1.4-0.1V55.2z M200.4,49.5h-50.8
		c-1.8,0-3.4-1.1-4-2.8h58.8C203.8,48.4,202.2,49.5,200.4,49.5z M203.2,36.9h-20.1l-1.9-5.6h18.4l4.8,5.6H203.2z M197.1,28.4h-44.2
		l7.3-8.4h29.7L197.1,28.4z M182.1,9.6l12.8-5.1L208.4,7l-0.5,1.5L195,5.9c-0.3-0.1-0.6,0-0.8,0.1l-9.9,4.2
		c-0.5,0.2-0.9,0.7-0.9,1.3v5.6h-1.4V9.6z M155.1,4.5l12.8,5.1v7.5h-1.4v-5.6c0-0.6-0.3-1.1-0.9-1.3L155.8,6
		c-0.3-0.1-0.6-0.1-0.8-0.1l-12.9,2.6L141.6,7L155.1,4.5z"/>
	<path class="st2" d="M216.1,61.8c-5,0.6-8.7,4.8-8.7,9.8c-4,0-7.7,2.5-9.2,6.2c-7.8-2.3-16.1,2.1-18.4,10c-0.2,0.7-0.4,1.4-0.5,2.1
		c-1.6,0.1-3.2,0.7-4.4,1.8c-1.2-1-2.8-1.7-4.4-1.8c-1.2-8.1-8.6-13.7-16.7-12.5c-0.7,0.1-1.4,0.3-2.1,0.5c-1.5-3.8-5.1-6.2-9.2-6.2
		c0-5-3.7-9.2-8.7-9.8c-0.6-1.7-2.2-2.9-4-2.9v2.8c0.8,0,1.4,0.6,1.4,1.4c0,0.8,0.6,1.4,1.4,1.4c3.9,0,7,3.2,7.1,7
		c0,0.4,0,0.9-0.1,1.3c-0.1,0.8,0.4,1.5,1.1,1.6c0.2,0,0.3,0,0.5,0c0.4-0.1,0.9-0.1,1.3-0.1c3.3,0,6.2,2.3,6.9,5.5
		c0.2,0.8,0.9,1.2,1.7,1.1c0.1,0,0.2,0,0.2-0.1c6.1-2.5,13.1,0.4,15.6,6.5c0.5,1.3,0.8,2.6,0.9,4c0,0.4,0.2,0.8,0.5,1
		c0.3,0.3,0.7,0.4,1.1,0.3l0.2,0c0.1,0,0.2,0,0.3,0c1.5,0,2.9,0.7,3.8,1.9c0.5,0.6,1.4,0.7,2,0.2c0.1-0.1,0.2-0.1,0.2-0.2
		c0.9-1.2,2.3-1.9,3.8-1.9c0.1,0,0.2,0,0.3,0l0.2,0c0.8,0.1,1.5-0.5,1.6-1.2c0,0,0-0.1,0-0.1c0.3-6.6,5.9-11.7,12.5-11.4
		c1.4,0.1,2.8,0.4,4,0.9c0.4,0.2,0.8,0.1,1.2-0.1c0.4-0.2,0.6-0.5,0.7-0.9c0.7-3.2,3.6-5.5,6.9-5.5c0.4,0,0.9,0,1.3,0.1
		c0.8,0.1,1.5-0.4,1.6-1.1c0-0.2,0-0.3,0-0.5c-0.1-0.4-0.1-0.9-0.1-1.3c0-3.9,3.2-7,7.1-7c0.8,0,1.4-0.6,1.4-1.4
		c0-0.8,0.6-1.4,1.4-1.4v-2.8C218.3,58.9,216.7,60.1,216.1,61.8z"/>
	<g>
		<path class="st3" d="M149.6,59.4h-2.8c0,4,1.6,7.8,4.4,10.6l0.2,0.2c0.6,0.5,1.4,0.5,2,0l0.2-0.2c2.8-2.8,4.4-6.6,4.4-10.6h-2.8
			c0,2.8-1,5.6-2.8,7.8C150.6,65,149.6,62.2,149.6,59.4z"/>
		<path class="st3" d="M194.7,59.4h-2.8c0,4,1.6,7.8,4.4,10.6l0.2,0.2c0.6,0.5,1.4,0.5,2,0l0.2-0.2c2.8-2.8,4.4-6.6,4.4-10.6h-2.8
			c0,2.8-1,5.6-2.8,7.8C195.7,65,194.7,62.2,194.7,59.4z"/>
	</g>
</g>
</svg>
